<svg width="12" height="11" viewBox="0 0 12 11" fill="none" xmlns="http://www.w3.org/2000/svg">
<path d="M11.2787 6.98521C11.2296 6.99318 11.1799 6.99686 11.1302 6.99621L2.66446 6.99621L2.84906 7.08207C3.0295 7.16748 3.19365 7.28371 3.33417 7.42551L5.70818 9.79952C6.02084 10.098 6.07338 10.5781 5.83267 10.9372C5.55253 11.3197 5.01529 11.4028 4.63268 11.1227C4.60177 11.1 4.57239 11.0753 4.54478 11.0488L0.251816 6.75581C-0.0836792 6.42069 -0.0839744 5.87706 0.251145 5.54157C0.25136 5.54135 0.251602 5.54111 0.251816 5.5409L4.54478 1.24793C4.88055 0.913104 5.42417 0.913855 5.75902 1.24962C5.78537 1.27605 5.80998 1.30417 5.83267 1.33379C6.07338 1.69281 6.02084 2.17296 5.70818 2.47142L3.33846 4.84973C3.21249 4.97583 3.06765 5.08158 2.90916 5.16312L2.65159 5.27903L11.083 5.27903C11.5216 5.26274 11.9064 5.56912 11.9888 6.00024C12.0647 6.46831 11.7468 6.90928 11.2787 6.98521Z" fill="#282828"/>
</svg>
