<svg width="12" height="11" viewBox="0 0 12 11" fill="none" xmlns="http://www.w3.org/2000/svg">
<path d="M0.721267 6.98521C0.770368 6.99318 0.820059 6.99686 0.869777 6.99621L9.33554 6.99621L9.15094 7.08207C8.9705 7.16748 8.80635 7.28371 8.66583 7.42551L6.29182 9.79952C5.97916 10.098 5.92662 10.5781 6.16733 10.9372C6.44747 11.3197 6.98471 11.4028 7.36732 11.1227C7.39823 11.1 7.42761 11.0753 7.45522 11.0488L11.7482 6.75581C12.0837 6.42069 12.084 5.87706 11.7489 5.54157C11.7486 5.54135 11.7484 5.54111 11.7482 5.5409L7.45522 1.24793C7.11945 0.913104 6.57583 0.913855 6.24098 1.24962C6.21463 1.27605 6.19002 1.30417 6.16733 1.33379C5.92662 1.69281 5.97916 2.17296 6.29182 2.47142L8.66154 4.84973C8.78751 4.97583 8.93235 5.08158 9.09084 5.16312L9.34841 5.27903L0.917026 5.27903C0.478418 5.26274 0.0936079 5.56912 0.0112095 6.00024C-0.0646954 6.46831 0.2532 6.90928 0.721267 6.98521Z" fill="#282828"/>
</svg>
