<svg width="12" height="11" viewBox="0 0 12 11" fill="none" xmlns="http://www.w3.org/2000/svg">
<path d="M0.721267 6.64927C0.770368 6.65724 0.820059 6.66092 0.869777 6.66028L9.33554 6.66028L9.15094 6.74613C8.9705 6.83154 8.80635 6.94777 8.66583 7.08957L6.29182 9.46358C5.97916 9.76205 5.92662 10.2422 6.16733 10.6012C6.44747 10.9838 6.98471 11.0669 7.36732 10.7867C7.39823 10.7641 7.42761 10.7394 7.45522 10.7128L11.7482 6.41987C12.0837 6.08475 12.084 5.54113 11.7489 5.20563C11.7486 5.20542 11.7484 5.20517 11.7482 5.20496L7.45522 0.911991C7.11945 0.577167 6.57583 0.577917 6.24098 0.913681C6.21463 0.940109 6.19002 0.968228 6.16733 0.99785C5.92662 1.35688 5.97916 1.83702 6.29182 2.13549L8.66154 4.51379C8.78751 4.6399 8.93235 4.74564 9.09084 4.82718L9.34841 4.94309L0.917026 4.94309C0.478418 4.9268 0.0936079 5.23319 0.0112095 5.66431C-0.0646954 6.13237 0.2532 6.57334 0.721267 6.64927Z" fill="white"/>
</svg>
